Title: Martha Marcy May Marlene
Year: 2011 
Country: U.S.A.
Language: English
Genre: Drama | Thriller
Runtime: 102 min
Source: BRRIP
Size: 1,36 GB
Directed by: Sean Durkin
Starring:
Elizabeth Olsen  ...  Martha
Christopher Abbott  ...  Max
Brady Corbet  ...  Watts
Hugh Dancy  ...  Ted
Maria Dizzia  ...  Katie
Julia Garner  ...  Sarah
John Hawkes  ...  Patrick
Louisa Krause  ...  Zoe
Sarah Paulson  ...  Lucy

IMDB Rating: 7.4/10

IMDB Link:                     
http://www.imdb.com/title/tt1441326/


Storyline: Martha has run away from an abusive hippie-like cult where she was living as Marcy May for two years. She turns to her sister and brother-in-law who take her in and want to help her. The problem is Martha is having a hard time separating dreams from reality and when haunting memories of her past keep resurfacing, she may need more help than anyone is able to give her. (IMDB)



General
Complete name                    : G:\Filmes\Martha Marcy May Marlene 2011 LIMITED 720p BRRip XviD-eXceSs\Martha.Marcy.May.Marlene.2011.LIMITED.720p.BRRip.XviD-eXceSs.avi
Format                           : AVI
Format/Info                      : Audio Video Interleave
File size                        : 1.36 GiB
Duration                         : 1h 41mn
Overall bit rate                 : 1 917 Kbps
Writing application              : VirtualDubMod 1.5.10.2 (build 2540/release)
Writing library                  : VirtualDubMod build 2540/release

Video
ID                               : 0
Format                           : MPEG-4 Visual
Format profile                   : Advanced Simple@L5
Format settings, BVOP            : Yes
Format settings, QPel            : No
Format settings, GMC             : No warppoints
Format settings, Matrix          : Default (H.263)
Muxing mode                      : Packed bitstream
Codec ID                         : XVID
Codec ID/Hint                    : XviD
Duration                         : 1h 41mn
Bit rate                         : 1 748 Kbps
Width                            : 1 280 pixels
Height                           : 528 pixels
Display aspect ratio             : 2.40:1
Frame rate                       : 23.976 fps
Color space                      : YUV
Chroma subsampling               : 4:2:0
Bit depth                        : 8 bits
Scan type                        : Progressive
Compression mode                 : Lossy
Bits/(Pixel*Frame)               : 0.108
Stream size                      : 1.24 GiB (91%)
Writing library                  : XviD 1.2.1 (UTC 2008-12-04)

Audio
ID                               : 1
Format                           : MPEG Audio
Format version                   : Version 1
Format profile                   : Layer 3
Mode                             : Joint stereo
Mode extension                   : MS Stereo
Codec ID                         : 55
Codec ID/Hint                    : MP3
Duration                         : 1h 41mn
Bit rate mode                    : Constant
Bit rate                         : 160 Kbps
Channel(s)                       : 2 channels
Sampling rate                    : 44.1 KHz
Compression mode                 : Lossy
Stream size                      : 117 MiB (8%)
Alignment                        : Split accross interleaves
Interleave, duration             : 42 ms (1.00 video frame)
Interleave, preload duration     : 500 ms
Writing library                  : LAME3.98.2



THIS TORRENT HAS SOFT SUBTITLES IN ENGLISH AND BRAZILIAN PORTUGUESE.


Thanks to those helping me seed. Leechers remember, the community depends on you. If nobody shares, the freebies go away. Remember, the only reason you can download this free movie is because others are generous enough to keep sharing it with you. If nobody shares, everybody loses, so even if its for an extra hour or two after you get it, remember, others want to see it too, and they can't without you.


SEE MY OTHERS UPLOADS:                                             
http://thepiratebay.org/user/noriegaRJ

AND SEE THIS ANOTHERS UPLOADS FROM "HORiZON-ArtSubs":  
http://thepiratebay.org/user/lletaif				